<svg xmlns="http://www.w3.org/2000/svg" width="494" height="500" viewBox="0 0 494 500"><path fill="#44B449" d="M22.4 324v3.5l4.1 3.6 6.9-6.2v-3.8l-6.9 6.2z"/><path fill="#BC212B" d="M6.5 322.3l-6.5 7h13z"/><path fill="#818185" d="M7.2 386.5l-7-6.5v13zm46.9 87.1l-7-6.4v13zm-47.6.1l7 6.5v-13zM26.8 390l6.4-7h-13z"/><path fill="#B8B8B8" d="M6.5 341.3l-6.5 7h13z"/><path fill="#9E9E9E" d="M47.2 367h2v2h-2zm3 3h2v2h-2zm6 0h2v2h-2zm6 0h2v2h-2zm6 0h2v2h-2zm-14.9-3h2v2h-2zm6 0h2v2h-2zm6 0h2v2h-2zm6.1 0h2v2h-2z"/><path fill="#C5C5C5" d="M.2 400v31h3.4c.3-5.5 3.7-10.1 8.3-11.8V418a6.72 6.72 0 0 1 3.8-12.3 6.72 6.72 0 0 1 3.8 12.3v1.2c4.6 1.7 8 6.3 8.3 11.8h3.4v-31H.2z"/><path fill="#FFF" d="M3.7 431H28c-.3-5.5-3.7-10.1-8.3-11.8V418a6.72 6.72 0 0 0-3.8-12.3 6.72 6.72 0 0 0-3.8 12.3v1.2c-4.6 1.7-8.1 6.3-8.4 11.8z"/><path fill="#B8B8B8" d="M60.3 340h1.9v14h-1.9z"/><path fill="#CCC" d="M63.2 341h10.1v8H63.2z"/><path fill="#D35F5F" d="M60.3 320.1h1.9v14h-1.9z"/><path fill="#F89393" d="M63.2 321.1h10.1v8H63.2z"/><path fill="#FE6502" d="M80.3 320.1h14v14h-14z"/><path fill="#FFF" d="M83.5 329.5c-.8 0-1.4.6-1.4 1.4s.6 1.4 1.4 1.4 1.4-.6 1.4-1.4c0-.7-.6-1.4-1.4-1.4zm-1.4-4v2a4.76 4.76 0 0 1 4.8 4.8h2c.1-3.8-3-6.8-6.8-6.8zm0-3.6v2c4.6 0 8.4 3.8 8.4 8.4h2c0-5.7-4.7-10.4-10.4-10.4z"/><path d="M22.6 347.1l-.7 3.2 3.2-.7zm3.3 1.87l-2.48-2.47 3.61-3.61 2.48 2.47zm3.2-7.67c-.4 0-.8.1-1.1.4l-.7.7 2.5 2.5.7-.7c.2-.3.4-.7.4-1.1 0-1-.8-1.8-1.8-1.8z" fill="#7A7A7A"/><circle fill="#C03433" cx="107" cy="451.8" r="6.5"/><path fill="#FFF" d="M110.2 453.7l-1.9-1.9 1.9-1.9v-.3l-.9-.9c-.1-.1-.1-.1-.2 0h-.1l-1.9 1.9-1.9-1.9h-.3l-.9.9c-.1.1-.1.1 0 .2v.1l1.9 1.9-1.9 1.9v.3l.9.9c.1.1.1.1.2 0h.1l1.9-1.9 1.9 1.9h.3l.9-.9v-.3c0 .1 0 .1 0 0z"/><circle fill="#C03433" cx="47.2" cy="346.9" r="6.5"/><path fill="#FFF" d="M50.4 348.8l-1.9-1.9 1.9-1.9v-.3l-.9-.9c-.1-.1-.1-.1-.2 0h-.1l-1.9 1.9-1.9-1.9h-.3l-.9.9c-.1.1-.1.1 0 .2v.1l1.9 1.9-1.9 1.9v.3l.9.9c.1.1.1.1.2 0h.1l1.9-1.9 1.9 1.9h.3l.9-.9v-.3c0 .1 0 0 0 0z"/><circle fill="#CCC" cx="47.2" cy="326.1" r="6.5"/><path fill="#FFF" d="M50.4 328.1l-1.9-1.9 1.9-1.9v-.3l-.9-.9c-.1-.1-.1-.1-.2 0h-.1l-2 1.8-1.9-1.9H45l-.9.9c-.1.1-.1.1 0 .2v.1l1.9 1.9-1.9 1.9v.3l.9.9c.1.1.1.1.2 0h.1l1.9-1.9 1.9 1.9h.3l.9-.9c.1 0 .1-.1.1-.2z"/><path d="M106.6 44.8H87.8v-1.9c.6 0 1.2-.1 2-.2s1.4-.2 1.6-.4c.6-.2 1-.6 1.3-1s.4-1 .4-1.6V13.8L81.3 44.3h-3.1c-.1-.5-.5-1.6-1.1-3.2-.6-1.6-1-2.9-1.4-3.8L67 13.5v21.1c0 2 .1 3.6.4 4.6s.7 1.8 1.3 2.3c.4.3 1.1.7 2.2 1s1.8.5 2.2.5v1.9H58.2V43c.4 0 1.1-.2 2-.3.9-.2 1.7-.5 2.3-.9.6-.5 1.1-1.2 1.3-2.3s.3-2.6.3-4.6V17.6c0-1-.1-1.9-.4-2.6-.3-.7-.7-1.2-1.2-1.6-.7-.5-1.3-.8-2-1l-2.1-.3v-1.9h16L82.9 33l7.2-18.5c.2-.7.5-1.5.7-2.4s.3-1.6.4-1.9h15.3v1.9c-.5 0-1.1.1-1.6.2-.6.1-1.1.2-1.6.4-.6.2-1.1.5-1.3 1-.2.5-.3 1-.3 1.5v24.5c0 .6.1 1.1.3 1.5.2.4.6.7 1.3 1 .3.1.9.3 1.6.4.7.1 1.3.2 1.7.3v1.9zm42.1 0h-18.9v-1.9c.9-.1 1.9-.2 3.1-.5 1.2-.3 1.8-.6 1.8-.9v-.4c0-.2-.1-.4-.2-.7l-3-7.2h-12c-.3.7-.6 1.4-.9 2.3-.3.9-.6 1.7-.9 2.4-.3.9-.5 1.6-.5 2-.1.4-.1.7-.1.9 0 .5.4 1 1.2 1.3.8.4 2.1.6 3.9.8v1.9H108v-1.9c.5 0 1.1-.1 1.8-.3.7-.1 1.2-.3 1.6-.6.7-.4 1.2-.9 1.7-1.4.5-.6.8-1.2 1.2-2 1.9-4.6 3.8-9.1 5.7-13.7 1.9-4.6 4-9.6 6.3-15.2h4.9c3.2 7.8 5.7 14 7.5 18.6s3.3 8.3 4.6 11.3c.2.5.5.9.8 1.3.3.4.8.8 1.4 1.1.5.3 1 .5 1.6.6s1.1.2 1.6.2v2zm-18.2-14l-5-12.5-4.9 12.5h9.9zm51.7-10.7h-1.9c-.5-1.5-1.3-3.1-2.4-4.8-1.1-1.7-2.1-2.6-3.1-2.7-.5-.1-1.2-.1-1.9-.2-.8 0-1.4-.1-2-.1h-1.1v27.2c0 .6.1 1.1.3 1.5s.6.8 1.2 1.1c.4.1 1 .3 1.7.5.8.2 1.5.3 2 .3v1.9h-19.3v-1.9c.5 0 1.1-.1 2-.2.9-.1 1.4-.2 1.7-.3.6-.3 1.1-.6 1.3-1s.3-1 .3-1.6V12.4h-1c-.6 0-1.2 0-2 .1-.8 0-1.4.1-1.9.2-.9.1-2 1-3.1 2.7s-1.9 3.3-2.4 4.8h-1.9v-9.9h33.5v9.8zm45.3 24.7h-18.7v-1.9c.4 0 1-.1 1.8-.1.8-.1 1.3-.2 1.6-.3.6-.2 1-.6 1.2-1s.3-.9.3-1.5V28.1h-14.8v11.7c0 .6.1 1 .4 1.5.2.4.6.8 1.2 1 .3.1.8.3 1.6.4.7.1 1.4.2 1.8.3v1.9h-18.7V43c.4 0 1-.1 1.8-.2s1.4-.2 1.7-.3c.6-.2 1-.5 1.2-1 .2-.4.3-.9.3-1.5V15.5c0-.6-.1-1-.3-1.4s-.6-.7-1.3-1a14.5 14.5 0 0 0-3.6-.9v-1.9h18.7v1.9c-.5 0-1.1.1-1.8.2s-1.2.3-1.6.4c-.6.2-1.1.5-1.3 1s-.3 1-.3 1.5v10.3h14.8V15.5c0-.6-.1-1-.3-1.4s-.6-.7-1.3-1c-.4-.2-1-.4-1.7-.5-.7-.2-1.3-.3-1.7-.3v-1.9h18.7v1.9c-.5 0-1.1.1-1.8.2s-1.2.2-1.8.4-1 .5-1.2 1-.3 1-.3 1.5v24.5c0 .6.1 1.1.3 1.5s.6.7 1.2 1c.4.2 1 .3 1.7.4.7.1 1.3.2 1.8.2v1.8h.4zm35-25.8h-1.9c-.5-1.3-1.3-2.6-2.4-4-1.2-1.3-2.3-2.1-3.4-2.4-.5-.1-1.2-.2-2-.2h-7.2v13.3h3.6c.9 0 1.7-.1 2.4-.3.7-.2 1.4-.6 2-1.2.4-.4.8-1 1.1-2 .4-.9.6-1.8.7-2.5h1.9v14.4h-1.9c-.1-.7-.3-1.5-.7-2.6-.4-1-.8-1.7-1.1-2.1-.5-.6-1.2-1-1.9-1.2s-1.6-.3-2.5-.3h-3.6v10c0 1 .1 1.9.2 2.5.2.6.4 1.1.9 1.4.4.3 1 .5 1.7.6s1.7.1 2.9.1h2c.8 0 1.5-.1 2.1-.1.7-.1 1.3-.2 1.9-.4s1-.4 1.3-.7c.8-.8 1.7-2 2.6-3.6s1.6-2.9 1.9-3.7h1.8l-.7 10.8h-32.5v-1.9c.5 0 1.1-.1 1.9-.2.8-.1 1.3-.2 1.7-.3.6-.3 1-.6 1.2-1s.3-.9.3-1.5V15.5c0-.6-.1-1.1-.3-1.5s-.6-.7-1.3-1c-.4-.2-1-.4-1.8-.5-.8-.2-1.3-.3-1.7-.3v-1.9h30.7V19h.1zm54 25.8h-18.8v-1.9c.6 0 1.2-.1 2-.2s1.4-.2 1.6-.4c.6-.2 1-.6 1.3-1s.4-1 .4-1.6V13.8l-11.9 30.4H288c-.1-.5-.5-1.6-1.1-3.2-.6-1.6-1-2.9-1.4-3.8l-8.8-23.8v21.1c0 2 .1 3.6.4 4.6s.7 1.8 1.3 2.3c.4.3 1.1.7 2.2 1s1.8.5 2.2.5v1.9H268v-1.9c.4 0 1.1-.2 2-.3.9-.2 1.7-.5 2.3-.9.6-.5 1.1-1.2 1.3-2.3.2-1.1.3-2.6.3-4.6V17.6c0-1-.1-1.9-.4-2.6-.3-.7-.7-1.2-1.2-1.6-.7-.5-1.3-.8-2-1s-1.4-.2-2.1-.3v-1.9h16l8.5 22.8 7.2-18.5c.2-.7.5-1.5.7-2.4s.3-1.6.4-1.9h15.3v1.9c-.5 0-1.1.1-1.6.2-.6.1-1.1.2-1.6.4-.6.2-1.1.5-1.3 1-.2.5-.3 1-.3 1.5v24.5c0 .6.1 1.1.3 1.5.2.4.6.7 1.3 1 .3.1.9.3 1.6.4.7.1 1.3.2 1.7.3v1.9h.1zm42.1 0h-18.9v-1.9c.9-.1 1.9-.2 3.1-.5s1.8-.6 1.8-.9v-.4c0-.2-.1-.4-.2-.7l-3-7.2h-12c-.3.7-.6 1.4-.9 2.3-.3.9-.6 1.7-.9 2.4-.3.9-.5 1.6-.5 2-.1.4-.1.7-.1.9 0 .5.4 1 1.2 1.3.8.4 2.1.6 3.9.8v1.9H318v-1.9c.5 0 1.1-.1 1.8-.3.7-.1 1.2-.3 1.6-.6.7-.4 1.2-.9 1.7-1.4.5-.6.8-1.2 1.2-2 1.9-4.6 3.8-9.1 5.7-13.7 1.9-4.6 4-9.6 6.3-15.2h4.9c3.2 7.8 5.7 14 7.5 18.6s3.3 8.3 4.6 11.3c.2.5.5.9.8 1.3.3.4.8.8 1.4 1.1.5.3 1 .5 1.6.6s1.1.2 1.6.2v2h-.1zm-18.2-14l-5-12.5-4.9 12.5h9.9zm51.7-10.7h-1.9c-.5-1.5-1.3-3.1-2.4-4.8s-2.1-2.6-3.1-2.7c-.5-.1-1.2-.1-1.9-.2-.8 0-1.4-.1-2-.1h-1.1v27.2c0 .6.1 1.1.3 1.5.2.4.6.8 1.2 1.1.4.1 1 .3 1.7.5.8.2 1.5.3 2 .3v1.9h-19.3v-1.9c.5 0 1.1-.1 2-.2.9-.1 1.4-.2 1.7-.3.6-.3 1.1-.6 1.3-1 .2-.4.3-1 .3-1.6V12.4h-1.1c-.6 0-1.2 0-2 .1-.8 0-1.4.1-1.9.2-.9.1-2 1-3.1 2.7s-1.9 3.3-2.4 4.8h-1.9v-9.9H392l.1 9.8zm22 24.7h-19.2v-1.9c.4 0 1.1-.1 1.9-.1.9-.1 1.4-.2 1.8-.3.6-.2 1-.6 1.2-1s.3-.9.3-1.5V15.5c0-.6-.1-1-.3-1.5-.2-.4-.6-.8-1.2-1-.4-.2-1-.3-1.7-.5-.8-.2-1.4-.3-2-.4v-1.9h19.2v1.9c-.5 0-1.1.1-1.8.2s-1.4.2-1.9.4c-.6.2-1.1.5-1.3 1-.2.4-.3 1-.3 1.5v24.5c0 .6.1 1.1.3 1.5.2.4.6.8 1.3 1 .3.1.9.3 1.7.4.8.1 1.5.2 2 .3v1.9zm22.4 1c-2.5 0-4.9-.4-7.1-1.2s-4.1-2-5.8-3.6c-1.6-1.5-2.9-3.4-3.8-5.7s-1.4-4.7-1.4-7.4.5-5.2 1.4-7.5 2.2-4.3 3.9-5.9c1.7-1.6 3.7-2.9 6-3.8 2.3-.9 4.8-1.4 7.5-1.4 1.9 0 3.7.2 5.2.7 1.6.5 2.9 1 4 1.6l1.5-1.3h2.1l.2 12.6h-2.1c-1.2-3.9-2.7-6.7-4.4-8.5a8.26 8.26 0 0 0-6.2-2.7c-3.1 0-5.4 1.3-7 4s-2.4 6.5-2.4 11.4c0 2.8.3 5.1.8 7.1.5 1.9 1.3 3.5 2.1 4.7.9 1.2 2.1 2.1 3.3 2.7 1.3.6 2.7.9 4.3.9 2.3 0 4.3-.6 6.1-1.9 1.8-1.2 3.4-3.1 4.9-5.6l2.1 1.3c-.7 1.4-1.5 2.7-2.4 3.8s-1.9 2.1-3.1 2.9c-1.3.9-2.7 1.6-4.3 2.1-1.4.4-3.3.7-5.4.7zm33.1 0c-2.1 0-4.1-.3-5.9-.8s-3.4-1.2-4.6-1.9l-1.7 1.7h-2.1l-.3-12.5h2.1c.5 1.2 1.1 2.4 1.8 3.8.7 1.3 1.6 2.5 2.5 3.5 1 1.1 2.1 2 3.3 2.7 1.2.7 2.7 1 4.3 1 2.2 0 3.9-.5 5.1-1.6s1.8-2.4 1.8-4.1c0-1.4-.5-2.5-1.5-3.4s-2.5-1.7-4.6-2.4c-1.4-.4-2.6-.8-3.8-1.2-1.1-.4-2.2-.8-3.2-1.2-2.3-.9-4.1-2.3-5.2-4s-1.7-3.7-1.7-5.8c0-1.4.3-2.7.9-3.9s1.4-2.4 2.6-3.4c1.1-.9 2.4-1.7 4.1-2.3s3.5-.9 5.5-.9c1.9 0 3.7.3 5.4.8 1.7.5 3 1.1 4 1.6l1.5-1.5h2.1l.2 11.8H480c-.5-1.3-1.1-2.6-1.7-3.9-.7-1.3-1.4-2.4-2.1-3.3-.8-.9-1.7-1.7-2.8-2.3-1-.6-2.3-.8-3.7-.8-1.8 0-3.2.5-4.3 1.5a4.8 4.8 0 0 0-1.7 3.7c0 1.4.5 2.5 1.5 3.4s2.5 1.7 4.5 2.3c1.2.4 2.4.8 3.7 1.2 1.3.4 2.4.8 3.3 1.2 2.4.9 4.2 2.2 5.4 3.8 1.2 1.6 1.8 3.6 1.8 6 0 1.5-.4 2.9-1 4.3-.7 1.4-1.6 2.6-2.8 3.5-1.3 1-2.8 1.8-4.5 2.4-1.7.7-3.7 1-6 1z" fill="#0F3559"/><path fill="#CB181F" d="M32.2 5.1l-8.7 5.1-8.8-5.1L23.4 0z"/><path fill="#B6161C" d="M32.2 5.1v10.1l-8.7 5.1V10.2z"/><path fill="#7F0F13" d="M23.5 10.2v10.1l-8.9-5.1.1-10.1z"/><path fill="#CB181F" d="M46.8 13.5L38 18.6l-8.8-5.1L38 8.4z"/><path fill="#B6161C" d="M46.8 13.5v10.1L38 28.7V18.6z"/><path fill="#7F0F13" d="M38 18.6v10.1l-8.8-5.1V13.5z"/><path fill="#CB181F" d="M46.8 30.3L38 35.4l-8.8-5.1 8.8-5.1z"/><path fill="#B6161C" d="M46.8 30.3v10.1L38 45.5V35.4z"/><path fill="#7F0F13" d="M38 35.4v10.1l-8.8-5.1V30.3z"/><path fill="#CB181F" d="M32.2 38.8l-8.7 5.1-8.8-5.1 8.7-5.1z"/><path fill="#B6161C" d="M32.2 38.8v10.1L23.5 54V43.9z"/><path fill="#7F0F13" d="M23.5 43.9V54l-8.9-5.1.1-10.1z"/><path fill="#CB181F" d="M17.6 30.3l-8.8 5.1L0 30.3l8.8-5.1z"/><path fill="#B6161C" d="M17.6 30.3v10.1l-8.8 5.1V35.4z"/><path fill="#7F0F13" d="M8.8 35.4v10.1L0 40.4V30.3z"/><path fill="#CB181F" d="M17.6 13.5l-8.7 5.1-8.8-5.1 8.7-5.1z"/><path fill="#B6161C" d="M17.6 13.5v10.1l-8.7 5.1V18.6z"/><path fill="#7F0F13" d="M8.9 18.6v10.1L0 23.6l.1-10.1z"/><path fill="#911A1D" d="M23.5 20.3l-8.8-5.1V5.1l8.8 5.1z"/><path fill="#ADADAD" d="M20 120l2.8 9.2H32l-7.4 5.6 2.8 9.2-7.4-5.7-7.4 5.7 2.8-9.2-7.4-5.6h9.2z"/><path fill="#FECC6A" d="M60 120l2.8 9.2H72l-7.4 5.6 2.8 9.2-7.4-5.7-7.4 5.7 2.8-9.2-7.4-5.6h9.2z"/><path fill="#BC212B" d="M65.8 184.3L59.9 173 54 184.3l4-.5-4 14.9 5.9-3.7 5.9 3.7-4-14.9z"/><path fill="#ADADAD" d="M25.8 184.3L19.9 173 14 184.3l4-.5-4 14.9 5.9-3.7 5.9 3.7-4-14.9z"/><path fill="#BC212B" d="M65.8 238.3l-5.9 11.4-5.9-11.4 4 .6-4-14.9 5.9 3.7 5.9-3.7-4 14.9z"/><path fill="#ADADAD" d="M25.8 238.3l-5.9 11.4-5.9-11.4 4 .6-4-14.9 5.9 3.7 5.9-3.7-4 14.9z"/><path fill="#C5C5C5" d="M82 402h9v9h-9z"/><path fill="#E17D3C" d="M72 411l-5-9-5 9z"/><circle fill="#F2C500" cx="106.5" cy="406.5" r="4.5"/><path fill="#1EA62F" d="M55.1 277.6l-4.1 2.6 7.4 6s6.1-9.1 9-9.9V270s-8 6.1-9 11.5l-3.3-3.9z"/><path fill="#ADADAD" d="M15.1 277.6l-4.1 2.6 7.4 6s6.1-9.1 9-9.9V270s-8 6.1-9 11.5l-3.3-3.9z"/></svg>